<svg xmlns="http://www.w3.org/2000/svg" xmlns:xlink="http://www.w3.org/1999/xlink" x="0" y="0" version="1.1" viewBox="0 0 529.9 502" style="enable-background:new 0 0 529.9 502" xml:space="preserve"><style type="text/css">.st1{stroke-width:8.7229}.st1,.st2,.st3,.st4{fill:none;stroke:#000;stroke-miterlimit:10}.st2{stroke-width:8.567}.st3{stroke-width:9.1232}.st4{stroke-width:8.7705}.st9{fill:#ed1c24}.st10{fill:#fff}.st11{opacity:.4}</style><g id="Layer_2"><g><g><g><polygon points="411.7 363.7 84.7 363.7 84.7 36.7 411.7 36.7 411.7 73" class="st9"/><polygon points="411.7 363.7 84.7 363.7 84.7 36.7 411.7 36.7 411.7 73" class="st1"/></g><line x1="86.9" x2="410.8" y1="79.5" y2="79.5" class="st1"/><g><rect width="279.1" height="79.7" x="107" y="103.8" class="st10"/><rect width="279.1" height="79.7" x="107" y="103.8" class="st2"/></g><g><rect width="99.7" height="137.4" x="107" y="203.5" class="st10"/><rect width="99.7" height="137.4" x="107" y="203.5" class="st3"/></g><g><rect width="164.4" height="60.1" x="225" y="203.5" class="st10"/><rect width="164.4" height="60.1" x="225" y="203.5" class="st4"/></g><g><rect width="164.4" height="60.1" x="225" y="281.5" class="st10"/><rect width="164.4" height="60.1" x="225" y="281.5" class="st4"/></g><polygon points="124.2 141.1 202.3 208.2 201.7 336 111.7 336.5 31.9 273" class="st11"/><g><rect width="99.7" height="137.4" x="26" y="136.4"/></g><polygon points="317.2 376.4 385 337 385.3 285.9 229.4 285.7 165.8 318.3" class="st11"/><g><rect width="164.4" height="60.1" x="161.8" y="316.3"/></g><polygon points="355.6 310.3 229.4 259.1 229.4 207.8 385 207.8 502.7 250.1" class="st11"/><g><rect width="164.4" height="60.1" x="347.4" y="250.3"/></g><rect width="318.5" height="34.1" x="89.5" y="41.1" class="st10"/><polyline points="489 131.1 381.9 179.1 111.2 179.4 111.5 108.1 210.5 52.6" class="st11"/><g><rect width="279.1" height="79.7" x="210.5" y="52.1"/></g><circle cx="107.4" cy="59" r="7"/></g><g><g><path d="M147.6,409.4h13.2c9.3,0,16.2,3.2,16.2,12.9c0,9.4-6.9,13.6-16,13.6h-6v15.4h-7.4V409.4z M160.4,429.9 c6.3,0,9.2-2.5,9.2-7.6c0-5.2-3.3-7-9.5-7H155v14.6H160.4z" class="st9"/><path d="M182.2,435.6c0-10.5,7.1-16.6,15-16.6s15,6.1,15,16.6c0,10.4-7.1,16.5-15,16.5S182.2,446,182.2,435.6z M204.6,435.6c0-6.3-2.8-10.5-7.4-10.5s-7.4,4.2-7.4,10.5c0,6.3,2.8,10.5,7.4,10.5S204.6,441.9,204.6,435.6z" class="st9"/><path d="M219.5,443.2V406h7.4v37.6c0,1.8,0.8,2.5,1.6,2.5c0.3,0,0.6,0,1.2-0.1l0.9,5.5c-0.9,0.4-2.1,0.6-3.9,0.6 C221.4,452.1,219.5,448.7,219.5,443.2z" class="st9"/><path d="M234.9,463.6l1.4-5.7c0.6,0.2,1.5,0.4,2.3,0.4c3.3,0,5.2-2.3,6.3-5.4l0.6-2L233,419.8h7.5l5.4,15.5 c0.9,2.8,1.8,5.9,2.8,8.9h0.3c0.8-2.9,1.6-6,2.4-8.9l4.7-15.5h7.1l-11.4,33c-2.6,7.1-5.9,11.5-12.8,11.5 C237.3,464.3,236,464,234.9,463.6z" class="st9"/><path d="M270.2,409h23.1v2.5h-20.1v16.9h17v2.5h-17v20.4h-3V409z"/><path d="M299.4,410.5c0-1.6,1.2-2.5,2.6-2.5s2.6,0.9,2.6,2.5c0,1.5-1.2,2.5-2.6,2.5S299.4,412,299.4,410.5z M300.5,420.5h2.8 v30.8h-2.8V420.5z"/><path d="M315.2,447.2v-42h2.8v42.4c0,1.4,0.6,2,1.3,2c0.3,0,0.5,0,1.2-0.1l0.5,2.3c-0.6,0.2-1.1,0.3-2,0.3 C316.5,452.1,315.2,450.6,315.2,447.2z"/><path d="M327.8,436c0-10.1,6.5-16.2,13.4-16.2c7.3,0,11.8,5.2,11.8,14.3c0,0.8,0,1.5-0.2,2.3h-22.2c0.1,7.8,4.7,13.3,11.6,13.3 c3.3,0,6-1.1,8.3-2.7l1.2,2.2c-2.4,1.5-5.2,3-9.7,3C334.2,452.1,327.8,446.1,327.8,436z M350.4,434c0-7.9-3.6-11.8-9.1-11.8 c-5.2,0-9.9,4.4-10.6,11.8H350.4z"/></g></g></g></g></svg>