<svg xmlns="http://www.w3.org/2000/svg" xmlns:xlink="http://www.w3.org/1999/xlink" x="0" y="0" version="1.1" viewBox="0 0 500 500" style="enable-background:new 0 0 500 500" xml:space="preserve"><style type="text/css">.st1{stroke-width:8.7229}.st1,.st2,.st3,.st4{fill:none;stroke:#000;stroke-miterlimit:10}.st2{stroke-width:8.567}.st3{stroke-width:9.1232}.st4{stroke-width:8.7705}.st5{opacity:.6;fill:url(#SVGID_1_)}.st6{fill:url(#SVGID_2_)}.st6,.st7,.st8{opacity:.6}.st7{fill:url(#SVGID_3_)}.st8{fill:url(#SVGID_4_)}</style><g id="Layer_2"><g><g><path d="M395.4,407.2C395.4,407.2,395.4,407.2,395.4,407.2l-327,0c0,0,0,0,0,0v-327c0,0,0,0,0,0h327c0,0,0,0,0,0 v36.3c0,0,0,0,0,0V407.2z" class="st1"/></g><line x1="65.6" x2="394.5" y1="123" y2="123" class="st1"/><g><rect width="279.1" height="79.7" x="90.8" y="147.2" class="st2"/></g><g><rect width="99.7" height="137.4" x="90.8" y="246.9" class="st3"/></g><g><rect width="164.4" height="60.1" x="208.7" y="246.9" class="st4"/></g><g><rect width="164.4" height="60.1" x="208.7" y="324.9" class="st4"/></g><linearGradient id="SVGID_1_" x1="327.919" x2="201.828" y1="87.894" y2="289.682" gradientUnits="userSpaceOnUse"><stop offset="0" style="stop-color:#fff"/><stop offset=".132" style="stop-color:#d8d8d8"/><stop offset=".453" style="stop-color:#7c7c7c"/><stop offset=".715" style="stop-color:#393939"/><stop offset=".903" style="stop-color:#101010"/><stop offset="1" style="stop-color:#000"/></linearGradient><polyline points="466.7 174.6 365.6 222.6 95 222.9 95.2 151.6 201.2 96.1" class="st5"/><g><path d="M473.3,175.2C473.3,175.2,473.2,175.2,473.3,175.2l-279.1,0c0,0,0,0,0,0V95.5c0,0,0,0,0,0h279c0,0,0,0,0,0V175.2z"/></g><linearGradient id="SVGID_2_" x1="15.6" x2="186.033" y1="282.244" y2="282.244" gradientUnits="userSpaceOnUse"><stop offset="0" style="stop-color:#fff"/><stop offset=".132" style="stop-color:#d8d8d8"/><stop offset=".453" style="stop-color:#7c7c7c"/><stop offset=".715" style="stop-color:#393939"/><stop offset=".903" style="stop-color:#101010"/><stop offset="1" style="stop-color:#000"/></linearGradient><polygon points="107.9 184.6 186 251.7 185.4 379.4 95.5 379.9 15.6 316.4" class="st6"/><g><path d="M109.4,317.3C109.4,317.3,109.4,317.3,109.4,317.3l-99.7,0c0,0,0,0,0,0V179.9c0,0,0,0,0,0h99.7c0,0,0,0,0,0V317.3z"/></g><linearGradient id="SVGID_3_" x1="149.523" x2="369.019" y1="374.507" y2="374.507" gradientUnits="userSpaceOnUse"><stop offset="0" style="stop-color:#fff"/><stop offset=".132" style="stop-color:#d8d8d8"/><stop offset=".453" style="stop-color:#7c7c7c"/><stop offset=".715" style="stop-color:#393939"/><stop offset=".903" style="stop-color:#101010"/><stop offset="1" style="stop-color:#000"/></linearGradient><polygon points="308.9 419.9 368.7 380.4 369 329.3 213.1 329.2 149.5 361.8" class="st7"/><g><rect width="164.4" height="60.1" x="145.5" y="359.8"/></g><linearGradient id="SVGID_4_" x1="382.828" x2="295.97" y1="353.915" y2="203.472" gradientUnits="userSpaceOnUse"><stop offset="0" style="stop-color:#fff"/><stop offset=".132" style="stop-color:#d8d8d8"/><stop offset=".453" style="stop-color:#7c7c7c"/><stop offset=".715" style="stop-color:#393939"/><stop offset=".903" style="stop-color:#101010"/><stop offset="1" style="stop-color:#000"/></linearGradient><polygon points="339.3 353.8 213.1 301.6 213.1 251.3 368.7 251.3 487.4 293.5" class="st8"/><g><rect width="164.4" height="60.1" x="331.1" y="293.8"/></g><circle cx="90.5" cy="102.4" r="7"/></g></g></svg>