<svg xmlns="http://www.w3.org/2000/svg" xmlns:xlink="http://www.w3.org/1999/xlink" x="0" y="0" version="1.1" viewBox="0 0 529.2 500" style="enable-background:new 0 0 529.2 500" xml:space="preserve"><style type="text/css">.st1{stroke-width:8.7229}.st1,.st2,.st3,.st4{fill:none;stroke:#000;stroke-miterlimit:10}.st2{stroke-width:8.567}.st3{stroke-width:9.1232}.st4{stroke-width:8.7705}.st5{opacity:.6;fill:url(#SVGID_1_)}.st6{fill:url(#SVGID_2_)}.st6,.st7,.st8{opacity:.6}.st7{fill:url(#SVGID_3_)}.st8{fill:url(#SVGID_4_)}</style><g id="Layer_2"><g><g><g><path d="M408.5,363.7C408.5,363.7,408.4,363.7,408.5,363.7l-327,0c0,0,0,0,0,0v-327c0,0,0,0,0,0h327c0,0,0,0,0,0V73 c0,0,0,0,0,0V363.7z" class="st1"/></g><line x1="78.6" x2="407.5" y1="79.5" y2="79.5" class="st1"/><g><rect width="279.1" height="79.7" x="103.8" y="103.8" class="st2"/></g><g><rect width="99.7" height="137.4" x="103.8" y="203.5" class="st3"/></g><g><rect width="164.4" height="60.1" x="221.7" y="203.5" class="st4"/></g><g><rect width="164.4" height="60.1" x="221.7" y="281.5" class="st4"/></g><linearGradient id="SVGID_1_" x1="345.423" x2="217.367" y1="42.859" y2="247.793" gradientUnits="userSpaceOnUse"><stop offset="0" style="stop-color:#fff"/><stop offset=".132" style="stop-color:#d8d8d8"/><stop offset=".453" style="stop-color:#7c7c7c"/><stop offset=".715" style="stop-color:#393939"/><stop offset=".903" style="stop-color:#101010"/><stop offset="1" style="stop-color:#000"/></linearGradient><polyline points="486.7 131.1 378.6 179.1 108 179.4 108.2 108.1 207.3 52.6" class="st5"/><g><path d="M486.3,131.3C486.3,131.3,486.3,131.3,486.3,131.3l-279.1,0.5c0,0,0,0,0,0V52.1c0,0,0,0,0,0l279-0.4c0,0,0,0,0,0V131.3z"/></g><linearGradient id="SVGID_2_" x1="28.622" x2="199.054" y1="238.781" y2="238.781" gradientUnits="userSpaceOnUse"><stop offset="0" style="stop-color:#fff"/><stop offset=".132" style="stop-color:#d8d8d8"/><stop offset=".453" style="stop-color:#7c7c7c"/><stop offset=".715" style="stop-color:#393939"/><stop offset=".903" style="stop-color:#101010"/><stop offset="1" style="stop-color:#000"/></linearGradient><polygon points="120.9 141.1 199.1 208.2 198.5 336 108.5 336.5 28.6 273" class="st6"/><g><path d="M122.4,273.8C122.4,273.8,122.4,273.8,122.4,273.8l-99.7,0c0,0,0,0,0,0V136.4c0,0,0,0,0,0h99.7c0,0,0,0,0,0V273.8z"/></g><linearGradient id="SVGID_3_" x1="162.544" x2="382.04" y1="331.045" y2="331.045" gradientUnits="userSpaceOnUse"><stop offset="0" style="stop-color:#fff"/><stop offset=".132" style="stop-color:#d8d8d8"/><stop offset=".453" style="stop-color:#7c7c7c"/><stop offset=".715" style="stop-color:#393939"/><stop offset=".903" style="stop-color:#101010"/><stop offset="1" style="stop-color:#000"/></linearGradient><polygon points="321.9 376.4 381.7 337 382 285.9 226.1 285.7 162.5 318.3" class="st7"/><g><rect width="164.4" height="60.1" x="158.5" y="316.3"/></g><linearGradient id="SVGID_4_" x1="395.85" x2="308.992" y1="310.453" y2="160.01" gradientUnits="userSpaceOnUse"><stop offset="0" style="stop-color:#fff"/><stop offset=".132" style="stop-color:#d8d8d8"/><stop offset=".453" style="stop-color:#7c7c7c"/><stop offset=".715" style="stop-color:#393939"/><stop offset=".903" style="stop-color:#101010"/><stop offset="1" style="stop-color:#000"/></linearGradient><polygon points="352.3 310.3 226.2 258.1 226.2 207.8 381.7 207.8 500.5 250.1" class="st8"/><g><rect width="164.4" height="60.1" x="344.1" y="250.3"/></g><circle cx="103.5" cy="59" r="7"/></g></g><g><g><path d="M144.3,409.4h13.2c9.3,0,16.2,3.2,16.2,12.9c0,9.4-6.9,13.6-16,13.6h-6v15.4h-7.4V409.4z M157.2,429.9 c6.3,0,9.2-2.5,9.2-7.7c0-5.2-3.3-7-9.5-7h-5.2v14.6H157.2z"/><path d="M178.9,435.6c0-10.5,7.1-16.6,15-16.6s15,6.1,15,16.6c0,10.4-7.1,16.5-15,16.5S178.9,446,178.9,435.6z M201.3,435.6 c0-6.3-2.8-10.5-7.4-10.5s-7.4,4.2-7.4,10.5s2.8,10.5,7.4,10.5S201.3,441.9,201.3,435.6z"/><path d="M216.2,443.2V406h7.4v37.6c0,1.8,0.8,2.5,1.6,2.5c0.3,0,0.6,0,1.2-0.1l0.9,5.5c-0.9,0.4-2.1,0.6-3.9,0.6 C218.2,452.1,216.2,448.7,216.2,443.2z"/><path d="M231.6,463.6l1.4-5.7c0.6,0.2,1.5,0.4,2.3,0.4c3.3,0,5.2-2.3,6.3-5.4l0.6-2l-12.4-31.1h7.5l5.4,15.5 c0.9,2.8,1.8,5.9,2.8,8.9h0.3c0.8-2.9,1.6-6,2.4-8.9l4.7-15.5h7.1l-11.4,33c-2.6,7.1-5.9,11.5-12.8,11.5 C234,464.3,232.8,464,231.6,463.6z"/><path d="M267,409H290v2.5h-20.1v16.9h17v2.5h-17v20.4h-3V409z"/><path d="M296.1,410.5c0-1.6,1.2-2.5,2.6-2.5c1.4,0,2.6,0.9,2.6,2.5c0,1.5-1.2,2.5-2.6,2.5C297.3,413.1,296.1,412,296.1,410.5z M297.2,420.5h2.8v30.8h-2.8V420.5z"/><path d="M311.9,447.2v-42h2.8v42.4c0,1.4,0.6,2,1.3,2c0.3,0,0.5,0,1.2-0.1l0.5,2.3c-0.6,0.2-1.1,0.3-2,0.3 C313.2,452.1,311.9,450.6,311.9,447.2z"/><path d="M324.6,436c0-10,6.5-16.2,13.4-16.2c7.3,0,11.8,5.2,11.8,14.3c0,0.8,0,1.5-0.2,2.3h-22.2c0.1,7.8,4.7,13.3,11.6,13.3 c3.3,0,6-1.1,8.3-2.7l1.2,2.2c-2.4,1.5-5.2,3-9.7,3C330.9,452.1,324.6,446.1,324.6,436z M347.1,434c0-7.9-3.6-11.8-9.1-11.8 c-5.2,0-9.9,4.4-10.6,11.8H347.1z"/></g></g></g></svg>