<svg xmlns="http://www.w3.org/2000/svg" xmlns:xlink="http://www.w3.org/1999/xlink" x="0" y="0" version="1.1" viewBox="0 0 500 500" style="enable-background:new 0 0 500 500" xml:space="preserve"><style type="text/css">.st1{stroke-width:8.7229}.st1,.st2,.st3,.st4{fill:none;stroke:#000;stroke-miterlimit:10}.st2{stroke-width:8.567}.st3{stroke-width:9.1232}.st4{stroke-width:8.7705}.st9{fill:#ed1c24}.st10{fill:#fff}.st11{opacity:.4}</style><g id="Layer_2"><g><g><polygon points="395 407.2 68 407.2 68 80.1 395 80.1 395 116.5" class="st9"/><polygon points="395 407.2 68 407.2 68 80.1 395 80.1 395 116.5" class="st1"/></g><line x1="70.2" x2="394.1" y1="123" y2="123" class="st1"/><rect width="318.5" height="34.1" x="72.8" y="84.6" class="st10"/><g><rect width="279.1" height="79.7" x="90.4" y="147.2" class="st10"/><rect width="279.1" height="79.7" x="90.4" y="147.2" class="st2"/></g><g><rect width="99.7" height="137.4" x="90.4" y="246.9" class="st10"/><rect width="99.7" height="137.4" x="90.4" y="246.9" class="st3"/></g><g><rect width="164.4" height="60.1" x="208.3" y="246.9" class="st10"/><rect width="164.4" height="60.1" x="208.3" y="246.9" class="st4"/></g><g><rect width="164.4" height="60.1" x="208.3" y="324.9" class="st10"/><rect width="164.4" height="60.1" x="208.3" y="324.9" class="st4"/></g><polyline points="466.3 174.6 365.2 222.6 94.6 222.9 94.8 151.6 200.8 96.1" class="st11"/><g><rect width="279.1" height="79.7" x="193.8" y="95.5"/></g><polygon points="107.5 184.6 185.6 251.7 185 379.4 95.1 379.9 15.2 316.4" class="st11"/><g><rect width="99.7" height="137.4" x="9.3" y="179.9"/></g><polygon points="300.5 419.9 368.3 380.4 368.6 329.3 212.7 329.2 149.1 361.8" class="st11"/><g><rect width="164.4" height="60.1" x="145.1" y="359.8"/></g><polygon points="338.9 353.8 212.7 302.6 212.7 251.3 368.3 251.3 486 293.5" class="st11"/><g><rect width="164.4" height="60.1" x="330.7" y="293.8"/></g><circle cx="92.1" cy="102.4" r="7"/></g></g></svg>